<svg width="72" height="19" viewBox="0 0 72 19" fill="none" xmlns="http://www.w3.org/2000/svg">
<path d="M26.7739 0.886719C28.0435 0.88673 29.2173 1.09621 30.2896 1.52148H30.2905C31.3712 1.94436 32.3172 2.54169 33.1226 3.31543H33.1216C33.9275 4.07481 34.5519 4.97662 34.9927 6.01562H34.9917C35.4354 7.04679 35.6548 8.17368 35.6548 9.38965C35.6548 10.6066 35.436 11.7411 34.9927 12.7861C34.5513 13.8264 33.9261 14.7293 33.1187 15.4893C32.3137 16.2468 31.369 16.8358 30.2905 17.2578L30.2896 17.2568C29.218 17.6819 28.052 17.8925 26.7964 17.8926C25.5256 17.8926 24.3438 17.6829 23.2573 17.2578C22.1789 16.8358 21.2341 16.2468 20.4292 15.4893L20.4253 15.4854C19.6214 14.713 18.9975 13.8126 18.5562 12.7881L18.5552 12.7861C18.1118 11.7411 17.8931 10.6066 17.8931 9.38965C17.8931 8.17269 18.1117 7.04455 18.5562 6.0127C18.9968 4.97491 19.6202 4.07412 20.4253 3.31543C21.2306 2.54172 22.1767 1.94434 23.2573 1.52148C24.3431 1.09662 25.517 0.886719 26.7739 0.886719ZM7.94189 1.10938C9.69595 1.10943 11.2583 1.44772 12.6147 2.1416C13.9661 2.83301 15.0304 3.7988 15.7925 5.03711C16.5595 6.28355 16.9331 7.74114 16.9331 9.38965C16.9331 11.0245 16.5585 12.4801 15.7935 13.7393L15.7925 13.7422C15.0305 14.9804 13.9661 15.9453 12.6147 16.6367C11.2583 17.3307 9.69603 17.6699 7.94189 17.6699H0.63916V1.10938H7.94189ZM40.8794 1.10938L41.0249 1.35254L46.7671 10.9414L52.4136 1.35547L52.5591 1.10938H55.7222L55.7231 1.6084L55.7456 17.1689L55.7466 17.6699H52.0122L52.0112 17.1709L51.9937 8.66016L47.8052 15.6484L47.6597 15.8916H45.8062L45.6597 15.6514L41.4741 8.77637V17.6699H37.7173V1.10938H40.8794ZM62.8384 1.10938V14.2246H70.9751V17.6699H58.9487V1.10938H62.8384ZM26.7739 4.4209C26.0473 4.4209 25.3854 4.54299 24.7837 4.7832C24.1942 5.02444 23.6726 5.37296 23.2153 5.83008C22.7741 6.27134 22.4242 6.7951 22.1665 7.40527C21.9288 7.98842 21.8052 8.64763 21.8052 9.38965C21.8052 10.1137 21.9279 10.773 22.1665 11.373L22.2671 11.5986C22.5124 12.1146 22.8285 12.571 23.2153 12.9707L23.3833 13.1309C23.7854 13.4937 24.2502 13.7809 24.7808 13.9932C25.3833 14.2342 26.0461 14.3584 26.7739 14.3584C27.5017 14.3584 28.1646 14.2342 28.7671 13.9932C29.3733 13.7506 29.8934 13.4098 30.3325 12.9707C30.7745 12.5141 31.1152 11.9913 31.3569 11.4004L31.3589 11.3955C31.6118 10.7964 31.7426 10.1301 31.7427 9.38965C31.7427 8.64893 31.6122 7.99119 31.3608 7.40918L31.356 7.39648C31.1134 6.79 30.7718 6.2694 30.3325 5.83008L30.3276 5.8252C29.8887 5.37297 29.3702 5.02644 28.7671 4.78516C28.1646 4.54416 27.5017 4.42091 26.7739 4.4209ZM4.52881 14.2246H7.80811C8.91572 14.2246 9.83977 14.0143 10.5981 13.6152L10.6021 13.6133C11.3804 13.2106 11.9673 12.6541 12.3765 11.9414L12.3794 11.9355C12.8015 11.2233 13.021 10.3803 13.021 9.38965C13.021 8.38241 12.8007 7.54115 12.3813 6.84668L12.3765 6.83789C11.9673 6.12516 11.3805 5.56776 10.6021 5.16504L10.5981 5.16406C9.83973 4.76491 8.91582 4.55469 7.80811 4.55469H4.52881V14.2246Z" fill="#171717" stroke="black"/>
</svg>
